<?xml version="1.0" standalone="no"?>
<!DOCTYPE svg PUBLIC "-//W3C//DTD SVG 20010904//EN"
 "http://www.w3.org/TR/2001/REC-SVG-20010904/DTD/svg10.dtd">
<svg version="1.0" xmlns="http://www.w3.org/2000/svg"
 width="500.000000pt" height="500.000000pt" viewBox="0 0 500.000000 500.000000"
 preserveAspectRatio="xMidYMid meet">
<metadata>
Created by potrace 1.14, written by Peter Selinger 2001-2017
</metadata>
<g transform="translate(0.000000,500.000000) scale(0.100000,-0.100000)"
fill="#000000" stroke="none">
<path d="M2361 3969 c-14 -5 -41 -12 -60 -15 -105 -16 -244 -46 -278 -60 -76
-32 -141 -86 -225 -186 -60 -71 -77 -97 -83 -129 -2 -12 -7 -29 -10 -39 -6
-17 -2 -17 37 5 24 14 103 43 175 65 203 62 282 113 415 270 52 62 76 101 60
99 -4 0 -18 -5 -31 -10z"/>
<path d="M2800 3971 c0 -4 5 -12 11 -18 13 -13 -7 -13 -28 0 -48 30 55 -104
146 -191 64 -61 155 -107 286 -147 50 -15 104 -31 120 -36 17 -5 49 -20 73
-34 45 -26 51 -21 27 25 -15 30 -15 30 10 20 14 -5 25 -7 25 -4 0 12 -88 133
-129 177 -100 107 -173 143 -351 171 -58 10 -124 23 -147 31 -24 8 -43 10 -43
6z"/>
<path d="M1704 3893 c-16 -21 -32 -40 -35 -43 -3 -3 -41 -50 -85 -106 -72 -89
-153 -228 -198 -338 -14 -34 -14 -37 0 -32 12 5 14 1 8 -17 -3 -12 -11 -28
-16 -34 -7 -9 -7 -13 0 -13 11 0 143 129 212 207 85 97 107 145 129 283 11 68
18 126 17 128 -2 2 -17 -14 -32 -35z"/>
<path d="M3456 3903 l7 -28 -22 25 -22 25 6 -30 c9 -48 13 -76 20 -140 3 -33
11 -73 17 -90 16 -41 81 -129 147 -198 70 -73 74 -83 19 -52 -41 22 -306 105
-338 105 -10 0 -6 -8 13 -24 37 -32 34 -38 -12 -21 -22 7 -41 11 -44 9 -7 -7
147 -147 209 -189 28 -20 59 -37 70 -39 10 -2 41 -7 67 -10 27 -4 56 -9 65
-11 112 -20 114 -19 73 28 -15 18 -14 18 24 12 l40 -8 -30 34 c-16 19 -23 28
-15 22 26 -24 29 -13 10 33 -25 58 -25 60 7 35 48 -38 44 -27 -48 164 -32 68
-80 142 -148 229 -56 71 -101 132 -101 137 0 5 -5 9 -10 9 -6 0 -8 -11 -4 -27z
m254 -538 c13 -14 21 -25 18 -25 -2 0 -15 11 -28 25 -13 14 -21 25 -18 25 2 0
15 -11 28 -25z"/>
<path d="M3800 3690 c0 -8 4 -31 10 -49 14 -49 5 -50 -20 -2 -32 64 -34 56
-10 -49 5 -25 12 -56 14 -70 9 -56 46 -202 60 -235 21 -50 82 -139 143 -209
29 -33 51 -62 48 -64 -4 -5 -85 80 -85 90 0 5 -8 8 -19 8 -10 0 -38 9 -62 19
-71 32 -259 78 -259 65 0 -3 12 -16 28 -30 15 -13 20 -22 12 -19 -30 9 -90 12
-90 4 0 -5 4 -9 9 -9 5 0 62 -51 126 -114 l117 -115 -40 -103 c-53 -135 -87
-252 -107 -363 -9 -49 -26 -126 -37 -170 -25 -99 -27 -110 -34 -160 -7 -48
-14 -59 -14 -22 0 15 -4 27 -10 27 -5 0 -10 -6 -10 -14 0 -15 -92 -158 -98
-152 -2 2 4 39 13 81 38 187 36 376 -8 502 -8 26 -7 36 7 58 16 24 20 79 13
199 -1 31 -5 29 -56 -37 -39 -51 -41 -57 -36 -106 2 -29 10 -61 15 -72 9 -15
6 -26 -13 -52 -71 -94 -100 -210 -99 -394 1 -79 -2 -143 -6 -144 -51 -6 -52
-5 -47 13 4 10 -1 28 -9 39 -14 20 -13 24 4 47 l20 24 -31 39 -30 39 30 44
c33 48 37 66 20 83 -8 8 -6 18 6 36 15 24 15 26 -9 45 -14 11 -46 23 -72 27
-48 7 -71 -3 -122 -49 -23 -20 -67 -96 -62 -106 1 -3 6 -13 12 -23 6 -12 4
-27 -6 -49 -15 -29 -14 -34 8 -90 l25 -60 -24 22 c-17 16 -24 18 -28 8 -4 -10
-6 -9 -6 2 -1 8 -7 26 -14 40 -29 57 -59 140 -60 172 -3 45 -43 107 -75 115
-20 5 -30 0 -48 -22 -27 -34 -134 -249 -157 -315 -2 -8 -4 34 -3 93 1 59 -1
113 -5 119 -12 20 -36 0 -43 -35 -7 -38 -75 -180 -103 -215 l-19 -23 -11 36
c-11 36 -11 296 0 340 3 11 6 23 6 27 1 6 22 10 116 24 53 7 57 13 61 75 2 37
-4 68 -21 108 -13 31 -26 74 -30 96 -10 56 -21 72 -49 77 -62 12 -111 -48
-151 -185 -11 -39 -22 -56 -36 -60 -28 -7 -133 1 -165 13 -24 9 -26 9 -20 -10
3 -11 9 -30 13 -42 4 -15 3 -19 -5 -14 -18 11 -14 -8 10 -54 20 -36 67 -76 79
-66 2 2 27 6 55 10 l50 6 -3 -32 c-8 -80 -10 -362 -4 -453 9 -123 28 -165 72
-165 17 0 39 4 49 10 20 11 65 81 95 149 17 39 57 91 70 91 3 0 -7 -31 -20
-69 -14 -38 -25 -72 -25 -76 0 -20 48 38 102 121 l59 92 57 -17 c45 -13 58
-22 60 -39 2 -13 -2 -23 -10 -23 -15 -2 -85 -6 -113 -8 -30 -2 -6 -16 50 -31
28 -7 73 -24 100 -36 101 -46 144 -28 99 42 -16 23 -16 26 2 39 18 13 21 10
48 -46 16 -34 40 -68 54 -77 24 -16 25 -15 73 35 48 50 50 51 77 37 15 -7 37
-14 48 -14 13 0 24 -8 27 -20 4 -16 0 -20 -21 -22 -46 -3 -76 -1 -95 7 -31 13
-8 -22 35 -54 28 -21 47 -28 67 -25 35 6 46 -15 32 -60 -16 -51 -29 -126 -22
-126 4 0 17 7 29 16 29 20 36 14 27 -24 -5 -27 -14 -32 -75 -52 -68 -22 -154
-69 -144 -79 2 -3 24 -4 47 -3 49 3 82 -12 50 -22 -11 -4 -29 -16 -39 -28 -19
-21 -19 -21 10 -14 18 4 49 1 81 -10 l53 -16 -34 -80 c-37 -87 -37 -88 -26
-88 4 0 22 22 40 49 69 101 97 119 228 151 143 33 208 45 277 49 29 2 19 21
-14 28 -64 13 1 25 134 24 117 0 211 7 327 25 49 7 88 20 143 48 26 14 57 23
67 21 11 -2 20 0 20 6 0 5 -7 9 -15 9 -8 0 -15 3 -15 8 1 20 53 51 120 73 41
13 103 43 138 66 34 24 64 43 66 43 10 0 106 64 106 70 0 4 -33 5 -72 3 -52
-3 -69 -1 -58 6 11 8 0 11 -42 11 l-58 0 12 25 c6 14 32 38 58 55 73 47 136
135 164 228 17 59 10 65 -44 37 -34 -18 -43 -8 -30 31 10 33 36 198 45 294 l6
65 -40 -60 c-23 -33 -41 -56 -41 -52 0 4 -7 43 -16 85 -9 42 -18 86 -20 97 -2
11 -6 56 -9 100 -3 44 -8 88 -11 98 -8 24 -31 21 -49 -7 -10 -15 -22 -22 -34
-19 -36 9 -88 -73 -140 -219 -40 -115 -50 -134 -106 -193 -27 -27 -59 -67 -73
-88 -13 -20 -25 -37 -26 -37 -1 0 -2 25 -3 56 -1 47 4 63 32 105 l32 50 13
-32 13 -31 25 48 c14 27 38 85 55 129 27 75 28 83 17 130 -7 28 -17 57 -22 65
-5 8 -26 63 -47 123 -37 102 -99 222 -110 211 -3 -2 -4 -26 -3 -52 2 -43 1
-45 -13 -27 -47 65 -45 64 -41 12 3 -32 -5 -73 -21 -125 -17 -49 -27 -106 -29
-159 -3 -73 1 -93 35 -195 21 -62 42 -122 45 -133 4 -11 -4 1 -18 26 -24 45
-71 88 -118 109 -16 8 -31 31 -46 73 -13 34 -32 79 -43 100 l-20 38 28 -15
c15 -9 38 -23 51 -32 27 -20 28 -6 3 38 -16 28 -37 158 -25 158 2 0 15 -17 29
-37 l26 -38 -6 65 c-3 36 -8 81 -10 100 -2 19 -7 60 -10 90 -10 87 -44 145
-154 258 -112 115 -161 172 -184 217 -9 17 -16 23 -17 15z m159 -1074 c26 -55
49 -160 54 -235 3 -55 1 -58 -28 -38 -28 19 -57 29 -50 17 3 -5 7 -45 9 -88 5
-100 9 -111 50 -142 35 -26 62 -60 48 -60 -4 0 -52 27 -107 59 -55 33 -102 58
-104 56 -2 -2 9 -25 23 -51 14 -26 24 -49 22 -51 -2 -3 -18 3 -35 12 -17 8
-31 14 -32 13 0 -2 -2 -12 -4 -23 -25 -137 -46 -179 -65 -130 -10 26 -11 27
-35 11 -14 -9 -25 -12 -25 -6 0 28 88 326 145 490 96 278 85 254 100 233 7
-10 22 -40 34 -67z m-1425 -11 c6 -16 -3 -23 -44 -35 -35 -10 -37 -2 -10 33
21 26 44 27 54 2z m920 -288 c4 -33 2 -74 -7 -112 -20 -83 -51 -160 -62 -158
-13 3 -24 67 -21 128 2 28 15 90 31 139 24 78 29 88 40 73 7 -10 16 -41 19
-70z m869 7 c-7 -19 -20 -18 -26 4 -2 9 -8 26 -12 37 -7 18 -6 18 18 -4 14
-13 23 -29 20 -37z m-1153 -75 c0 -18 -2 -19 -15 -9 -15 12 -12 30 6 30 5 0 9
-10 9 -21z m-327 -116 c8 -21 12 -41 9 -45 -10 -9 -92 -17 -92 -8 0 4 6 13 14
19 8 6 19 25 26 41 16 39 25 38 43 -7z m723 -300 c-2 -21 -7 -50 -11 -65 -5
-18 -3 -28 4 -28 27 0 9 -57 -33 -105 -39 -45 -47 -49 -90 -50 -26 -1 -43 1
-39 5 4 3 29 22 54 43 48 38 53 46 90 165 12 39 24 72 26 72 2 0 2 -17 -1 -37z
m55 -96 c-10 -9 -11 -8 -5 6 3 10 9 15 12 12 3 -3 0 -11 -7 -18z"/>
<path d="M1354 3659 c-8 -17 -78 -95 -153 -173 -134 -137 -172 -189 -185 -251
-10 -49 -17 -98 -21 -131 -10 -100 -19 -145 -38 -191 -12 -29 -25 -53 -28 -53
-4 0 -9 21 -13 48 -3 26 -17 80 -30 120 -17 54 -21 84 -16 113 9 47 2 49 -25
9 -27 -40 -34 -38 -25 10 4 22 4 40 0 40 -17 0 -73 -103 -121 -221 -83 -203
-85 -212 -70 -267 18 -69 75 -205 87 -209 5 -2 16 13 23 33 l13 37 29 -49 c22
-38 29 -60 27 -96 -1 -27 -5 -48 -10 -48 -4 0 -8 5 -8 11 0 6 -26 38 -59 72
-67 71 -80 94 -117 203 -31 94 -77 180 -112 212 -23 20 -27 21 -35 7 -7 -14
-12 -13 -33 10 -42 46 -55 25 -67 -110 -3 -33 -16 -103 -28 -154 l-22 -95 -23
30 c-13 16 -27 37 -30 47 -3 9 -10 17 -15 17 -11 0 -4 -116 11 -185 4 -22 11
-60 14 -85 3 -25 10 -61 16 -80 17 -59 15 -62 -41 -39 -29 11 -54 17 -57 15
-8 -8 20 -97 42 -136 38 -67 89 -121 141 -151 29 -17 59 -36 65 -44 11 -13 5
-14 -39 -11 -28 2 -51 2 -51 0 0 -2 15 -13 32 -25 l33 -20 -112 4 c-116 5
-127 0 -70 -29 18 -9 70 -41 116 -72 54 -35 113 -64 165 -80 85 -26 146 -52
146 -63 0 -4 -17 -10 -38 -14 -36 -8 -36 -8 33 -20 39 -7 86 -19 105 -27 19
-9 60 -19 90 -23 30 -4 73 -14 95 -22 32 -11 72 -13 195 -8 93 4 165 3 180 -3
24 -9 24 -10 -17 -21 -48 -13 -65 -30 -31 -32 73 -4 101 -9 313 -54 133 -29
142 -34 207 -127 23 -32 45 -58 49 -58 5 0 9 1 9 3 0 6 -43 114 -55 138 -14
26 -14 28 17 38 17 6 49 11 72 11 l41 1 -30 24 c-16 13 -27 26 -25 29 13 12
78 22 103 15 66 -18 -2 39 -85 71 -29 11 -69 23 -88 26 -43 7 -48 11 -50 49
-3 48 -2 48 46 20 42 -25 45 -25 40 -7 -6 17 -12 62 -15 104 -1 5 -17 26 -37
48 l-36 40 31 0 c34 0 57 26 67 78 4 18 11 32 16 32 10 0 3 -31 -18 -71 -7
-15 -10 -29 -7 -33 9 -9 103 -8 103 2 7 120 39 206 93 246 43 32 51 14 52
-120 2 -87 6 -118 16 -125 22 -15 98 -4 118 17 56 62 62 100 11 81 -46 -17
-46 -1 -2 43 50 48 48 75 -4 65 -31 -5 -34 -4 -34 17 0 13 5 41 11 63 5 22 12
81 15 132 6 109 1 113 -94 88 -33 -8 -62 -15 -65 -15 -10 0 -15 56 -5 73 23
45 -44 56 -154 26 -43 -11 -51 -36 -17 -57 l20 -13 -22 -18 -22 -17 27 -27
c33 -33 33 -55 1 -181 -25 -98 -51 -164 -39 -99 3 17 1 46 -5 65 -15 49 -24
99 -23 133 4 74 10 134 15 142 4 6 -5 21 -19 34 -29 27 -90 32 -108 7 -15 -20
-74 -93 -107 -133 -14 -16 -42 -52 -62 -79 -20 -27 -37 -47 -37 -44 0 3 14 60
30 126 17 67 30 132 30 145 0 58 40 70 180 54 56 -7 69 -5 97 12 18 11 39 30
47 43 15 24 25 122 13 134 -13 13 -191 5 -242 -11 -27 -8 -54 -15 -58 -15 -12
0 0 36 35 106 29 61 30 62 61 54 63 -17 104 -22 207 -25 190 -5 349 31 418 95
29 28 35 44 35 95 0 38 -6 46 -45 66 -25 13 -63 22 -93 23 -50 1 -50 1 -51
-31 0 -43 -15 -57 -82 -82 -54 -20 -177 -41 -199 -34 -6 2 2 17 18 33 22 21
29 38 29 67 0 50 -14 63 -66 63 -42 0 -109 -30 -186 -82 -48 -33 -101 -31
-182 6 l-59 26 19 22 c38 45 70 75 97 92 37 25 34 34 -10 30 l-38 -4 24 20
c13 11 19 21 15 21 -34 5 -179 -31 -250 -61 -50 -22 -126 -69 -132 -82 -2 -5
-8 -8 -13 -8 -18 0 -8 27 21 55 76 73 145 207 165 320 3 17 9 39 12 50 3 11 7
29 9 40 1 11 10 53 18 93 9 40 16 78 16 83 0 20 -20 7 -36 -22z m-4 -773 c37
-7 131 -33 163 -45 l28 -11 -21 -40 c-13 -25 -24 -72 -28 -118 l-7 -77 -57
-14 c-61 -16 -122 -6 -153 25 -8 9 -23 14 -33 12 -14 -3 -17 -15 -19 -68 -2
-91 11 -138 43 -146 14 -4 68 0 120 8 68 10 94 11 94 3 0 -23 -51 -161 -85
-229 -32 -64 -40 -73 -85 -93 -34 -15 -50 -18 -53 -10 -3 9 -14 7 -37 -5 -17
-10 -36 -18 -41 -18 -16 0 -10 68 10 102 13 23 20 59 23 120 l4 86 -46 -23
-47 -24 5 25 5 26 -39 -20 c-50 -25 -132 -62 -137 -62 -3 0 -3 17 0 38 5 43
21 56 107 93 69 29 92 61 102 142 3 26 11 68 19 94 8 26 12 49 10 51 -2 2 -18
-6 -35 -18 -39 -28 -54 -23 -35 13 7 15 13 27 11 27 -1 0 -33 -16 -72 -35 -38
-19 -72 -35 -76 -35 -24 0 13 127 48 170 33 39 40 33 18 -14 -10 -19 -15 -38
-12 -41 3 -3 23 6 44 21 43 29 76 43 114 50 14 3 43 16 65 28 21 13 44 22 50
20 5 -2 21 -6 35 -8z m-452 -234 c-1 -25 -10 -49 -26 -68 -13 -16 -22 -22 -19
-14 14 45 42 120 44 120 2 0 2 -17 1 -38z m-47 -317 c-7 -28 -8 -28 -18 -10
-9 15 -8 22 5 31 22 16 23 14 13 -21z m871 -162 c3 -21 3 -42 1 -48 -3 -10
-79 -12 -89 -2 -7 6 65 87 77 87 4 0 9 -17 11 -37z m-125 0 c-8 -10 -44 -61
-79 -114 -36 -55 -68 -94 -75 -92 -7 3 -13 8 -13 13 0 16 163 210 177 210 3 0
-1 -8 -10 -17z m-496 -130 c-12 -20 -14 -14 -5 12 4 9 9 14 11 11 3 -2 0 -13
-6 -23z m516 5 c41 -28 41 -35 3 -36 -61 -2 -67 -28 -13 -57 53 -29 74 -63 77
-123 l2 -52 -35 35 c-18 20 -35 34 -37 32 -2 -2 -5 -22 -6 -45 -1 -42 -18 -49
-18 -8 0 45 -23 87 -66 120 l-44 34 48 60 c26 34 49 61 51 62 3 0 20 -10 38
-22z m-207 -119 c0 -11 -4 -18 -10 -14 -5 3 -7 12 -3 20 7 21 13 19 13 -6z
m114 -168 c4 -5 24 -12 45 -16 34 -6 41 -11 47 -38 8 -39 18 -52 66 -88 32
-23 35 -27 19 -32 -21 -5 -63 12 -65 27 0 5 -31 38 -68 74 -38 36 -68 69 -68
74 0 11 17 10 24 -1z"/>
<path d="M1732 3479 c-178 -54 -220 -75 -302 -157 -51 -49 -53 -54 -27 -49 33
5 34 0 5 -31 l-23 -25 35 7 c19 3 46 8 59 11 13 2 49 7 80 10 72 8 143 43 206
103 28 26 75 68 104 94 l53 48 -33 -7 -34 -6 25 21 c14 11 23 22 20 25 -3 2
-78 -18 -168 -44z"/>
</g>
</svg>
